<svg
    xmlns="http://www.w3.org/2000/svg"
    width="1302"
    height="1302"
    className="img-fluid"
    style="transform:matrix(1,0,0,1,0,0);transform-origin:50% 50%;cursor:move;max-height:350.08px;transition:transform 200ms ease-in-out 0s"
    viewBox="0 0 13020 13020"
>
    <style>
		path {
			fill: #0f172a;
		}
		@media ( prefers-color-scheme: dark ) {
			path {
                fill: #f8fafc;
			}
		}
	</style>
    <g fill="#0F172A" style="transform:none">
        <path d="M6275 12709c-579-43-1013-117-1449-244-955-281-1807-748-2534-1389-490-433-992-1080-1336-1723-235-439-447-1005-555-1483-12-52-26-113-31-135-16-66-52-277-70-415-36-267-49-448-56-755-7-270-5-317 27-645 23-241 56-460 105-705 9-44 18-91 21-105 17-94 117-458 173-627 34-105 163-435 208-534 146-323 348-676 544-955 220-312 340-461 600-744 370-403 940-852 1468-1155 694-399 1411-661 2120-774 664-105 1174-127 1705-71 412 44 490 55 739 107 733 153 1554 499 2196 926 395 263 636 457 954 767 484 472 903 1031 1197 1595 254 489 473 1086 568 1550 40 195 40 354 2 442-56 126-207 203-335 170-158-42-241-155-266-362-50-421-154-782-359-1255-272-624-691-1217-1237-1749-242-236-353-329-614-518-476-343-986-609-1530-799-434-151-818-231-1315-274-71-6-169-15-216-20-211-24-709-9-1001 30-147 19-223 30-288 40-36 6-92 15-125 20-168 27-353 70-595 140-592 170-1255 489-1715 823-507 368-724 571-1152 1075-112 131-139 171-152 218-23 86 31 164 115 164 25 0 56-7 69-16s68-70 122-137c190-238 565-590 868-818 431-324 915-594 1379-770 273-104 344-128 551-185 311-87 415-107 785-154 409-53 943-53 1355 0 668 85 1360 319 1957 663 460 264 799 527 1173 908 261 266 450 497 640 784 359 541 618 1148 711 1665 44 247 25 378-68 467-124 119-329 87-410-64-31-58-51-124-68-218-66-387-169-694-356-1060-170-334-309-549-549-850-194-244-429-483-680-692-482-401-1125-737-1769-924-319-93-547-136-891-169-141-13-706-13-810 0-44 6-118 15-165 21-468 56-828 143-1242 298-458 172-952 445-1328 736-244 188-572 506-775 750-528 635-885 1385-1015 2130-54 311-89 797-74 1035 26 443 101 872 210 1215 197 614 442 1074 835 1565 292 366 601 656 991 933 244 174 602 368 954 517 367 156 904 310 1219 350 433 54 617 64 950 51 143-6 296-16 340-21 287-36 350-48 585-107 816-205 1530-618 2141-1240 404-409 714-837 953-1313 175-349 298-690 421-1164 20-77 45-161 57-188 54-125 205-175 310-102 90 63 99 155 37 399-289 1146-851 2124-1685 2935-166 161-313 289-529 459-87 69-182 147-210 173l-50 47v76c0 75 1 77 36 109 81 75 141 57 417-127 505-338 924-739 1304-1247 238-319 401-586 578-945 135-276 193-412 320-759 164-448 231-598 316-716 105-145 261-264 418-317 66-22 98-28 176-27 83 0 101 3 146 26 136 71 187 209 154 418-33 202-162 626-290 945-105 264-300 664-418 857-300 494-583 858-967 1244-293 295-411 396-767 666-649 493-1467 881-2268 1076-311 76-417 95-770 142-337 44-842 62-1135 39zM1383 8600c14-11 31-36 37-56 14-41 3-76-61-205-38-78-130-346-169-494-75-289-128-610-151-920-14-181-6-804 10-920 26-176 35-224 58-325 36-153 23-208-54-229-40-11-76-1-111 32-40 37-76 200-114 507-18 145-18 925 0 1070 7 58 17 143 23 190 22 173 57 368 108 590 26 113 115 400 157 507 62 157 98 227 130 252 35 28 102 28 137 1z" />
        <path d="M6205 10729c-398-35-687-91-1010-196-417-135-782-315-1170-576-273-184-646-532-892-832-309-377-553-815-698-1250-93-279-141-474-180-740-48-330-46-834 5-1185 20-142 53-313 79-410 199-753 559-1365 1129-1922 534-520 1168-879 1937-1097 206-58 333-85 596-126 289-45 835-47 1159-5 361 48 793 171 1160 330 355 154 787 425 1095 688 127 109 358 340 456 457 280 335 536 764 640 1070 29 87 34 113 33 200 0 88-3 107-28 162-32 70-101 142-162 169-27 12-67 18-129 18-83 1-96-2-157-32-91-44-139-101-316-367-228-343-357-509-562-718-260-267-553-480-910-661-370-188-757-302-1205-355-197-24-437-33-545-22-58 6-157 15-220 21s-137 15-165 20c-27 5-90 17-140 26-444 81-905 277-1260 535-179 130-278 214-414 350-284 285-458 522-615 844-101 206-216 519-216 588v26l2738-1 2739-1 62 28c77 35 143 105 167 177 54 162-28 320-198 381-25 9-684 13-2826 17l-2794 5-3 65c-3 36-1 137 3 225l7 159 2800 1h2800l57 28c193 95 233 341 77 481-93 83 190 76-2891 76-2320 0-2748 2-2748 14 0 27 60 214 103 321 166 411 419 788 762 1130 334 334 764 591 1265 755 333 110 660 160 1043 160 399 0 765-57 1132-176 545-178 1011-460 1400-849 220-221 365-407 598-772 117-182 184-250 278-282 96-32 162-28 247 14 39 20 85 52 103 72 75 86 107 227 75 337-59 203-321 654-565 974-421 550-1034 1036-1645 1304-587 256-1097 361-1751 357-132-1-280-5-330-10z" />
    </g>
</svg>